<?xml version="1.0" encoding="UTF-8"?>
<svg width="64px" height="22px" viewBox="0 0 64 22" version="1.1" xmlns="http://www.w3.org/2000/svg" xmlns:xlink="http://www.w3.org/1999/xlink">
    <!-- Generator: sketchtool 50.2 (55047) - http://www.bohemiancoding.com/sketch -->
    <title>F326DF7D-DBA6-4657-8599-4167060D1230</title>
    <desc>Created with sketchtool.</desc>
    <defs></defs>
    <g id="Interface" stroke="none" stroke-width="1" fill="none" fill-rule="evenodd">
        <g id="01.1.1-:-WorkspaceOne-info" transform="translate(-562.000000, -1008.000000)" fill="#FFFFFF">
            <g id="workspace" transform="translate(336.000000, 714.000000)">
                <g id="foot" transform="translate(226.000000, 294.000000)">
                    <g id="logo-/-white" transform="translate(0.040000, 0.400000)">
                        <path d="M6.2990082,10.5251069 C6.50136259,10.1635742 6.59927371,9.70989933 6.59792468,9.25787121 C6.59643365,8.81699596 6.49994256,8.37761774 6.31107846,8.02656428 C6.04198262,7.52431081 5.76152653,7.2466118 5.25599556,7.78329695 C4.94358878,8.11414051 4.7369743,8.49513457 4.61911174,8.92627913 C4.55450034,9.16505537 4.51395846,9.44200586 4.56373054,9.67778804 C4.69011328,10.281091 5.08985196,10.6254078 5.64792407,10.7975663 C5.95173966,10.8918043 6.13492364,10.8185247 6.2990082,10.5251069 M11.03687,9.2046518 C11.1085816,8.8140019 11.0703117,8.41953457 10.9112683,8.0580019 C10.6876134,7.55125735 10.206152,7.40080586 9.81074441,7.78030289 C9.43081516,8.14557814 9.33503408,8.5924415 9.40319556,9.11041378 C9.45360666,9.48691675 9.82281467,9.78332863 10.1338014,9.91731279 C10.2779345,9.97869101 10.4788689,10.0408177 10.6343623,9.98917022 C10.7557749,9.94875042 10.8395567,9.83946725 10.899198,9.70847715 C10.9744597,9.54447754 11.0113805,9.34619596 11.03687,9.2046518 M14.168109,2.81083794 C14.1752091,2.54586368 14.0870962,2.46734448 13.8429219,2.48006923 C12.9852233,2.52415675 12.1509552,2.69639002 11.3329464,2.96211279 C11.083802,3.0429524 10.9006181,3.2046316 10.9077182,3.50254051 C10.9176584,3.93443358 10.9645194,4.36557814 10.9630284,4.79739636 C10.9623894,5.21139992 10.9361188,5.62682566 10.8920269,6.03776032 C10.8600762,6.33342368 11.0028603,6.47189893 11.2165749,6.60588309 C11.4288695,6.73986725 11.6546544,6.88133655 11.8136979,7.0752019 C12.2623566,7.62004586 12.327749,8.28255636 12.328459,8.98466329 C12.328459,9.94425933 11.6837651,10.9053524 10.8245754,11.1597726 C10.57607,11.2332019 10.4596985,11.3522158 10.392957,11.61719 C10.1657521,12.5266356 9.85618539,13.3844336 9.00345689,13.8806989 C8.41982422,14.2205247 7.81418108,14.3305564 7.22486829,14.0004613 C6.52337307,13.607491 6.06470311,12.9824811 6.00499082,12.1119583 C5.98873146,11.8648736 5.88719926,11.8237801 5.69691513,11.8402474 C5.16866367,11.8851583 4.6999825,11.6673405 4.28256444,11.381333 C3.69893177,10.9823746 3.27221251,10.4165722 3.38716401,9.63661972 C3.45816555,9.15532467 3.69893177,8.7032217 3.8430649,8.2315825 C3.93607692,7.92551477 4.07381991,7.59991081 4.04896937,7.29593893 C3.98293794,6.49285735 3.81466428,5.6994316 3.73372253,4.89702368 C3.67117017,4.27575636 3.68537048,3.64625537 3.64702965,3.02124547 C3.64213054,2.93816032 3.52561701,2.79294844 3.46320666,2.79444547 C2.94205535,2.80484982 2.41593393,2.80193061 1.9033028,2.88568943 C1.45457307,2.95986725 1.40196092,3.12296863 1.3778204,3.6380217 C1.35375088,4.15449695 1.26847803,4.66872665 1.24582854,5.1852019 C1.20606767,6.08491675 1.14990545,6.9868023 1.1840572,7.88502012 C1.21103778,8.6074118 1.35438989,9.32523754 1.45521208,10.0438118 C1.54900512,10.711487 1.60509633,11.391887 1.76548881,12.0423465 C2.05311606,13.2077841 2.37972314,14.3642395 2.74041097,15.5064732 C3.02654718,16.4136732 3.46100561,17.2579979 4.01694767,18.0147465 C4.96133917,19.2991979 6.33017787,19.7176177 7.76661005,19.8283979 C8.99273565,19.9234593 10.1267013,19.5641722 10.9503191,18.4855623 C11.5744227,17.6688577 12.2212467,16.8702672 12.5656042,15.8073762 C12.743108,15.286335 12.927641,14.767689 13.0966247,14.2437286 C13.4701638,13.0842043 13.6121669,11.8776732 13.7342896,10.6688217 C13.8429219,9.58946329 13.940194,8.50785933 14.0175857,7.42550685 C14.0842561,6.48761774 14.1269281,5.54673457 14.1595888,4.60659992 C14.1801792,4.0084617 14.1524176,3.40897616 14.168109,2.81083794 M15.4411666,1.99128903 C15.4418766,2.82738012 15.4503968,3.66272269 15.4383265,4.49881378 C15.4283863,5.18737259 15.3943056,5.87533259 15.3701651,6.60064349 C15.2991635,7.30574448 15.2174407,7.97259636 15.1600005,8.64109497 C15.0790587,9.58190329 15.0534982,10.5303465 14.9334346,11.4652415 C14.8184121,12.3604653 14.6892603,13.2683389 14.4301047,14.1254633 C14.0126156,15.5034791 13.5311541,16.8620336 12.6784966,18.0386989 C12.0166913,18.9533841 11.3798785,19.8665722 10.3290557,20.3456217 C9.55300881,20.6989207 8.76482071,20.956335 7.91351223,20.9736257 C6.46302176,21.0035663 5.13600296,20.5552059 3.98222792,19.6704613 C3.45816555,19.2677603 3.06630804,18.6532296 2.66727938,18.0932657 C1.90259279,17.0192217 1.51698342,15.7534831 1.16914687,14.4854989 C0.892879877,13.4771746 0.679875254,12.4495385 0.463391556,11.4248217 C0.07004302,9.56401378 -0.038660339,7.67319042 0.0437014484,5.77428309 C0.0814032666,4.90226329 0.218365239,4.03473457 0.320678459,3.1663825 C0.349789091,2.92311517 0.363208382,2.65297616 0.474751803,2.45087715 C0.64373547,2.14323754 0.923481541,2.04143952 1.2948196,2.0152415 C2.24340018,1.9493722 3.18835969,1.80116626 4.12991112,1.65445735 C4.59348018,1.58185141 4.85341683,1.78020784 4.86406706,2.27797022 C4.88103643,3.11630685 4.88955661,3.95531715 4.9399677,4.79140824 C4.97624949,5.3865524 5.03439975,5.74733655 5.11896259,6.33791477 C5.13600296,6.45468309 5.19493424,6.71292071 5.25528555,6.82370091 C5.25528555,6.78926923 5.7139555,6.55947517 5.75158632,6.5460019 C6.14067476,6.40602962 6.49632148,6.5205524 6.82654965,6.75184349 C7.46904259,7.20237457 7.65229757,7.90073893 7.76448,8.62088507 C7.89086274,9.43676626 7.82625134,10.2466593 7.41373239,10.9823746 C7.07853411,11.5797643 7.26036906,12.5011112 7.79856074,12.877689 C8.22030989,13.1726039 8.77625196,12.9570316 8.97008616,12.4083702 C9.08503766,12.0835148 9.14261991,11.7324613 9.28313196,11.4233247 C9.41306478,11.138889 9.30166336,10.9779583 9.11847938,10.8297524 C8.62075858,10.4285484 8.14426724,9.92704349 8.16421867,9.21969695 C8.17486891,8.85741576 8.31254089,8.5339825 8.39639371,8.188992 C8.49650589,7.77805735 8.58731686,7.40529695 8.86358385,7.09009735 C8.96362502,6.97639794 9.14545997,6.79825141 9.25551236,6.69495636 C9.34923439,6.60812863 9.44437646,6.59465537 9.56010897,6.5460019 C9.62756043,6.35737616 9.67158139,6.10812071 9.68578169,5.9060217 C9.72689159,5.30646131 9.75110311,4.70465537 9.75600222,4.10359794 C9.7595523,3.7233524 9.68933177,3.34235834 9.69643193,2.96211279 C9.70559112,2.41419992 9.7688535,1.87220032 10.1472917,1.4403821 C10.4660176,1.0773524 10.9218475,1.21208507 11.0646316,1.51747913 C11.2421355,1.8992217 11.5225206,1.82960982 11.7980775,1.79143556 C12.3773791,1.71134448 12.9539116,1.60056428 13.5326452,1.51298804 C13.9259937,1.45310685 14.3242414,1.42690883 14.7155308,1.35729695 C15.1188196,1.28469101 15.4411666,1.55108745 15.4411666,1.99128903" id="Fill-1"></path>
                        <path d="M30.88239,13.7342894 C32.3759074,13.6378807 33.8751759,13.5832391 35.3795566,13.5317413 C40.0900828,13.3703615 44.7852017,13.6798724 49.4695994,14.206228 C53.001855,14.6030906 55.8317634,15.2888051 59.3775094,15.4157532 C59.7144117,15.4278043 59.9235822,15.5944985 60.097749,15.8394874 C60.2578575,16.0647904 60.7361949,16.7379298 60.5660752,17.0302997 C60.3546326,17.3938534 59.4703084,17.174314 59.1625167,17.1167532 C54.5274651,16.2507964 50.557272,15.5665789 45.8674782,15.1317667 C41.7696953,14.7517457 37.6798645,14.6526423 33.5699403,14.7994261 C31.3850099,14.9076613 29.2042686,15.1093861 27.0349585,15.4043758 C25.1554057,15.6599936 22.3936588,15.7612676 20.8314829,17.0355393 C20.5239042,17.2864415 20.2097224,17.2112158 19.9421176,17.0353896 C19.7044754,16.8792494 19.4848676,16.6302185 19.5692885,16.2748985 C19.5990381,16.1495971 19.6748678,16.0079033 19.7712879,15.932977 C20.5182241,15.3521294 21.4082284,15.1570665 22.2845294,14.9300419 C24.986138,14.2300308 28.1376124,13.9115377 30.88239,13.7342894" id="Fill-10"></path>
                        <path d="M42.6288494,3.9556465 C42.5099928,4.10564887 42.51617,4.35086234 42.5153179,4.53537125 C42.5141819,4.79630352 42.5116969,5.35671659 42.5024667,5.61749917 C42.4842903,6.13015699 42.4399143,6.64401244 42.3269509,7.14402036 C42.3185727,7.18107184 42.2997573,7.22658154 42.2636175,7.22508451 C42.2445181,7.22426115 42.2288977,7.20951541 42.2150524,7.19551818 C41.9239461,6.90225006 41.7940133,6.41421838 41.6451231,6.02671224 C41.4809675,5.59953481 41.3269652,5.168016 41.1611056,4.74158709 C41.1412251,4.69031382 41.1204927,4.63948966 41.1003992,4.58829125 C40.858355,3.99464412 40.7430485,3.53543026 40.4574803,2.96461283 C40.2205481,2.49110234 39.8311757,2.33398907 39.430443,2.47044333 C39.0035107,2.61587976 38.7907191,2.86872808 38.8221018,3.42899145 C38.8255809,3.49104333 38.8224568,3.55369402 38.8191197,3.61597046 C38.784329,4.27024729 38.8120196,4.92564689 38.786175,5.58037283 C38.7333499,6.91594788 38.6679574,8.25137323 38.6441719,9.5878465 C38.6276286,10.5180259 38.6184694,11.2671396 38.7496092,11.6506037 C38.9411004,12.2102683 39.3449571,12.1482912 39.7448378,12.0363134 C39.982267,11.9698453 40.1836983,11.8153518 40.1783022,11.4697625 C40.167368,10.7719221 40.2208321,9.10048848 40.2225362,8.40219897 C40.2233882,8.06304689 40.259883,7.15532293 40.3033359,7.04080016 C40.3785976,7.13503818 40.7414154,8.02756729 40.8679402,8.37136016 C41.1092744,9.02646036 41.3566438,9.90214788 41.6126754,10.5510354 C41.9318273,11.3595811 42.0466368,11.5235808 42.841712,11.578372 C43.2244813,11.6046449 43.485767,11.2988766 43.5229008,10.8969241 C43.6270601,9.7669661 43.7449936,8.63843026 43.8643472,7.51004412 C43.9283906,6.90516927 44.0089774,6.6776956 44.0774938,6.07341956 C44.1395492,5.5259558 44.2836113,4.45101362 44.1882562,3.90639422 C44.0957412,3.37809244 43.0439954,3.71215461 42.7364877,3.86792055 C42.6923958,3.89030115 42.656966,3.92009204 42.6288494,3.9556465" id="Fill-12"></path>
                        <path d="M45.9205092,5.67671418 C46.0368808,4.59832883 46.0668434,3.8607423 46.2163017,2.78692289 C46.2449153,2.58138071 46.2286559,2.40869834 45.9452888,2.50151418 C45.4229304,2.67254982 44.5463454,2.69934665 44.0257621,2.87584646 C43.6451939,3.00489042 43.1033811,2.75892844 43.0274805,2.28990903 C42.959603,1.8699922 43.0955709,1.64558745 43.5562289,1.46691695 C44.8700414,0.957253188 46.6112832,0.716530812 47.9674837,0.415328436 C48.6488144,0.263978733 49.3346183,0.0650983366 50.0230493,0.0418943762 C50.5318463,0.0247533861 51.1391225,-0.155638693 51.5579606,0.393920911 C51.7383755,0.630601307 51.6867574,1.11795933 51.4105614,1.2125716 C51.0148698,1.34812764 50.6024218,1.43383259 50.193169,1.51953754 C49.5101341,1.66250388 48.8212062,1.85651893 48.1386684,2.00165596 C47.9670577,2.03818349 47.9251667,2.12590943 47.9074874,2.37958111 C47.8748267,2.84822626 47.5609998,6.44177121 47.4686268,8.30183061 C47.4385932,8.90505873 47.2636454,10.2176544 47.2067022,10.8194603 C47.1774495,11.1283724 46.8903193,11.4116853 46.5929648,11.4232872 C45.9375496,11.4488865 45.6218768,11.0194635 45.6487863,10.4475981 C45.6974934,9.41157873 45.722983,8.82391972 45.770554,7.78782547 C45.7934875,7.28714388 45.8319703,7.16161794 45.8560398,6.6608615 C45.8608679,6.5599617 45.9040369,5.82918665 45.9205092,5.67671418" id="Fill-14"></path>
                        <path d="M59.2130485,10.9074033 C59.0603952,11.5156465 58.9448757,12.1012845 58.7442963,12.6524909 C58.5930631,13.0685154 58.3731713,13.1237558 57.990615,12.9778703 C57.8368256,12.9192615 57.6870124,12.8475538 57.5389032,12.7739748 C57.2320345,12.6213526 57.1314253,12.3498663 57.2032789,11.9779293 C57.39335,10.9957281 57.5410332,10.0031225 57.76341,9.02937956 C58.0085784,7.95600927 58.3076369,6.89566313 58.6059853,5.83688887 C58.6953763,5.51966828 58.8627979,5.22714867 58.9898907,4.92123065 C59.0085641,4.87639461 59.0163742,4.78021046 59.003665,4.7747463 C58.9281903,4.74278471 58.8396514,4.70101758 58.7656678,4.71643699 C58.2009925,4.83470234 57.6427074,4.73380253 57.4560444,4.00669521 C57.3632454,3.64501283 57.5077335,3.46267461 57.7517658,3.40369164 C58.6280668,3.19186194 59.513811,3.0234461 60.3975672,2.84679659 C61.0431842,2.71767778 61.6892982,2.58825956 62.3388203,2.4843657 C62.7140635,2.42433481 63.0960518,2.4084663 63.475768,2.38384016 C63.8100433,2.36213323 64.0013214,2.6655063 64.0114036,2.88931224 C64.0213439,3.11094749 63.8303497,3.4393958 63.6380065,3.55399343 C63.243522,3.78902709 62.7969933,3.94269719 62.3565707,4.07189085 C62.0341527,4.16635343 61.6821981,4.14449679 61.353745,4.22271659 C61.2092568,4.25714828 61.0196827,4.38282392 60.9711887,4.51590986 C60.6136249,5.49594036 60.2595402,6.47933917 59.9594877,7.48002867 C59.7657245,8.12614669 59.6659673,8.80355263 59.5223312,9.46651224 C59.421012,9.93470828 59.3167108,10.4021558 59.2130485,10.9074033" id="Fill-16"></path>
                        <path d="M52.0549288,4.43391754 C52.0547158,3.44325814 52.4611286,2.95425339 53.4451389,2.60102923 C54.1556514,2.34586051 54.8633237,2.19413655 55.6210522,2.17692071 C56.0417363,2.16733972 56.3888628,2.16292349 56.6965835,2.49032388 C56.9069611,2.71420467 56.8411426,2.96039121 56.7727681,3.20246091 C56.7033996,3.44834804 56.5053053,3.47012982 56.2898867,3.49370804 C55.5910895,3.57028111 54.8824231,3.51743596 54.2128786,3.87619913 C53.5342459,4.23982764 53.6426652,4.5123619 54.138824,4.9432819 C54.5778975,5.32472507 55.0786714,5.65324824 55.4354541,6.10714764 C55.8414409,6.62354804 56.1787693,7.22505457 56.4344458,7.84100745 C56.718026,8.5242518 56.4108733,9.1592918 55.9739298,9.65959913 C55.3325729,10.3941168 54.460816,10.7170261 53.5578894,10.909095 C53.2022427,10.984695 52.893173,10.7632843 52.6819434,10.454447 C52.4770329,10.1547417 52.6616369,9.7587025 53.1223659,9.65181457 C53.6762489,9.52321972 54.0794667,9.19297497 54.460745,8.7913219 C54.8207228,8.41212428 54.877595,8.01915398 54.6373258,7.56315873 C54.27607,6.87744428 53.7525046,6.35662764 53.1629788,5.89509339 C52.6806653,5.51746764 52.2289535,5.10743121 52.0549288,4.43391754" id="Fill-18"></path>
                        <path d="M25.8977197,4.45468135 C26.0638633,3.66133046 26.4427275,3.3030164 27.0783333,3.42607224 C27.2899889,3.46709085 27.4965324,3.65504293 27.66012,3.82435699 C27.8564392,4.02742907 27.613756,4.16538036 27.5416894,4.33783818 C27.1983969,5.15940808 26.8378511,5.976936 26.5614421,6.82410511 C26.3636318,7.43047699 26.2715428,8.07831659 26.1688036,8.71425481 C26.1320958,8.94210273 26.1676676,9.20019065 26.231072,9.42549362 C26.3923164,9.99825719 26.6634713,10.2985613 27.4371041,9.95649006 C27.7583861,9.81434709 28.1061516,9.71180055 28.4508641,9.6634465 C28.766537,9.61920927 28.8922097,9.89413877 28.7174039,10.187856 C28.0719999,11.2718552 26.2364681,11.8568196 25.2752492,10.422216 C25.0261758,10.0503538 24.8702564,9.55521125 24.8228984,9.099216 C24.7474238,8.37278234 24.848672,7.65128887 25.1136497,6.94663699 C25.4163293,6.14190867 25.6282689,5.29923065 25.8977197,4.45468135" id="Fill-20"></path>
                        <path d="M30.8272005,2.79252178 C30.9474771,3.01438158 31.0981424,3.20704931 31.1393943,3.42299584 C31.1775221,3.6226996 31.0849361,3.84643069 31.0734338,4.06095505 C31.0291999,4.88514475 30.9831199,5.70948416 30.9589084,6.53442238 C30.9288747,7.56063624 30.9074322,8.58752376 30.9080002,9.61411188 C30.9081422,9.98088416 31.0038523,10.3468331 31.0168456,10.7146533 C31.0259338,10.9722172 31.0921782,11.2607697 30.7684112,11.4272394 C30.4524544,11.5896671 30.253366,11.3955772 30.0424205,11.235919 C29.5907797,10.8939974 29.5062168,10.3497523 29.4898865,9.83799267 C29.4498416,8.57749366 29.4589298,7.31452455 29.4784552,6.05312733 C29.4930815,5.10348653 29.5515868,4.15451941 29.5961758,3.20555228 C29.6147782,2.81175861 30.2260304,2.52088574 30.664607,2.69229564 C30.7155151,2.71220614 30.7614531,2.74611386 30.8272005,2.79252178" id="Fill-22"></path>
                        <path d="M50.7020157,11.3100968 C49.9680018,11.6654917 49.5227511,11.5142168 49.2633115,10.837784 C49.2266037,10.7419741 49.2081433,10.6310442 49.2094923,10.5274497 C49.2215626,9.59337802 49.2124744,8.6576596 49.2639505,7.72575861 C49.3208227,6.69767347 49.4198699,5.82168653 49.5272242,4.79764337 C49.5424185,4.65280574 49.6668132,4.43094594 49.7763686,4.40347545 C50.1242762,4.31649802 50.4934132,4.24980535 50.8460068,4.28056931 C51.1487574,4.30691703 51.3433016,4.83671584 51.2883464,5.22639267 C51.1946244,5.88965168 51.1535855,6.7875701 51.0295458,7.44394277 C50.7994298,8.66132733 50.7976548,11.2397364 50.7020157,11.3100968" id="Fill-24"></path>
                        <path d="M50.5041983,2.32068048 C50.6639518,2.3044377 50.8258353,2.32457275 50.9645723,2.3846785 C51.0690156,2.4300385 51.1395201,2.51447097 51.1674237,2.62996681 C51.1841091,2.69935414 51.1870201,2.77196008 51.1856001,2.84321869 C51.183328,2.95250186 51.1440642,3.05736879 51.0843519,3.14569354 C50.9776366,3.30377988 50.8059549,3.41785354 50.6244039,3.45011453 C50.4206295,3.4862678 50.2250913,3.40932048 50.0664738,3.27563572 C49.9721838,3.19606859 49.7876508,3.0727882 49.7912008,2.92555533 C49.7950349,2.76672048 49.8679535,2.62345473 49.9863131,2.52644721 C50.1274641,2.41072681 50.3142692,2.34006701 50.5041983,2.32068048" id="Fill-26"></path>
                        <path d="M5.23433299,9.30576867 C5.32464695,9.10599006 5.79325712,9.13398451 5.85985657,9.31864313 C5.93739025,9.5340657 5.81704264,9.89305343 5.56363814,9.86797818 C5.5155701,9.86318768 5.47183315,9.83661541 5.4329953,9.80630055 C5.2852411,9.69087956 5.24789429,9.61647719 5.22652282,9.43002214 C5.22212073,9.39214729 5.21793164,9.35270055 5.2300019,9.31669699 C5.23127993,9.31295442 5.23269996,9.30928669 5.23433299,9.30576867" id="Fill-28"></path>
                        <path d="M9.94803299,9.12880479 C9.94980802,9.07887885 9.95612716,9.02738103 9.96500235,8.97610776 C9.97309653,8.92955014 9.98488279,8.88246855 10.0100883,8.84324638 C10.1373231,8.64586301 10.5215834,8.81323093 10.6002531,8.98718578 C10.6444871,9.08516638 10.6270207,9.23951014 10.5879699,9.3481945 C10.5300326,9.50920004 10.3205071,9.54078737 10.181131,9.50538261 C9.99070491,9.45702855 9.94171385,9.3029842 9.94803299,9.12880479" id="Fill-30"></path>
                        <path d="M37.8894256,9.76123996 C37.7827102,9.44169897 37.5646645,9.37575481 37.1197689,9.51280788 C36.9353068,9.56954531 36.7453777,9.60749501 36.5567266,9.64791481 C35.7734376,9.81580669 34.9753093,9.93010491 34.2794232,10.3975524 C33.9747556,10.6022712 34.0504432,9.95697659 34.0495202,9.78624036 C34.0468932,9.2921457 34.0909141,8.78659877 34.1386272,8.28314768 C34.1591466,8.26555758 34.1800921,8.24998848 34.2017475,8.2388356 C34.7632277,7.95237897 35.3457244,7.71233026 35.9159377,7.44436194 C36.2867788,7.27018253 36.5372012,6.97564194 36.6373844,6.55303046 C36.6978067,6.2983857 36.4126645,5.88685224 36.2140022,5.96701818 C35.6010459,6.21410293 34.9985978,6.49067917 34.3910376,6.75310848 C34.3444606,6.77324352 34.2936945,6.78259996 34.2434254,6.79337857 C34.2809852,5.9881263 34.3709442,5.17546372 34.4675063,4.3854063 C34.4675063,4.38518174 34.4675063,4.38495719 34.4675773,4.38473263 C34.6238517,4.3505255 34.776576,4.29880313 34.9281643,4.2470059 C35.5886206,4.02095442 37.1646418,3.35170729 37.2499147,3.28261937 C37.4321046,3.13508709 37.5072243,2.88493343 37.4913199,2.64024392 C37.4876988,2.58418016 37.4767646,2.52871521 37.4582332,2.47587006 C37.3292944,2.10894808 37.03478,2.1224962 36.7238643,2.20221303 C35.9551306,2.39922214 35.1873909,2.59675521 34.4246924,2.8183156 C34.3078238,2.64338768 34.1088775,2.57078174 33.8765605,2.49899917 C33.5270199,2.39083877 33.0348372,2.72362848 33.0147438,3.07969699 C32.9728529,3.8208764 32.9416832,4.56272947 32.9044784,5.30420828 C32.8708946,5.97345541 32.8368139,6.64262768 32.7998931,7.31165026 C32.7523931,8.17176867 32.6497958,9.0074855 32.5611859,9.86071758 C32.5590559,9.88130174 32.5569258,9.90181105 32.5547958,9.92232036 C32.5151769,10.3079552 32.5332823,10.702198 32.5273892,11.0898538 C32.519366,11.6222724 32.7524641,11.9825326 33.2256893,12.1070107 C33.5606746,12.1951109 33.8735074,12.0606776 34.1565195,11.8843275 C34.7902793,11.4893362 35.4365353,11.1297497 36.158195,10.944118 C36.5827842,10.8348348 37.0092195,10.7316146 37.4288386,10.6039928 C37.7876093,10.4948594 37.9981289,10.0866942 37.8894256,9.76123996" id="Fill-32"></path>
                        <path d="M20.4242961,6.3210657 C20.0786606,6.21821976 19.7544676,6.05309739 19.5349308,5.86783996 C19.2611489,5.63684828 19.1865973,5.3177564 19.2932416,4.83316788 C19.4198373,4.25800907 19.5961342,3.70972194 20.3532236,3.32371283 C20.5825586,3.20679481 20.8597486,3.12191323 21.1277794,3.03980115 L21.2411689,3.00499521 C21.3611615,2.96786887 21.4815801,2.9493057 21.5890054,2.95140154 C21.6515578,2.95267402 21.71056,2.96083283 21.7643082,2.97580313 C21.8408479,2.9971358 21.9121334,3.02962135 21.9810759,3.06120867 C22.0517225,3.09354451 22.1184639,3.12408392 22.1886134,3.14212313 C22.2853885,3.16712352 22.3835127,3.1807465 22.4802168,3.18269263 C22.585512,3.18478848 22.6853402,3.17273739 22.7767192,3.14706333 C22.9785766,3.09010135 23.1499033,2.95244947 23.2238159,2.78770135 C23.274866,2.67385224 23.2778481,2.55266768 23.2321941,2.44645343 C23.1202956,2.18656907 22.7823993,2.06066887 22.6815061,2.02825818 C22.3687443,1.92795719 22.0384452,1.87361501 21.6999098,1.86687838 C21.1060529,1.85520154 20.4704471,1.98896115 19.8109138,2.26456432 C18.8749715,2.65551362 18.3352178,3.07707719 18.0608678,3.63135244 C17.8163385,4.12544709 17.6872577,4.60449659 17.6663833,5.09597145 C17.6252024,6.07038808 18.0795413,6.77286927 19.0166906,7.18387877 C19.4473149,7.37287877 19.9080439,7.52886927 20.3535076,7.67962016 C21.108396,7.93531283 21.6880526,8.32738491 22.1262031,8.87829184 C22.5268648,9.38219204 22.5550524,9.8994158 22.2122569,10.4595295 C22.0062815,10.7960617 21.7571371,11.121516 21.4717819,11.4268352 C21.1003728,11.8242217 20.6140833,12.0563362 20.0264035,12.1166665 C19.8015416,12.1397208 19.5776738,12.1823861 19.3611191,12.2236293 L19.2358013,12.247432 C19.1254649,12.2680162 18.9988692,12.2975077 18.895491,12.3599338 L18.8862608,12.3654728 C18.6404534,12.5136039 18.4701917,12.63404 18.5174788,12.8354653 C18.5602217,13.0176538 18.7465297,13.1105445 18.9415,13.1838241 C19.0432452,13.2219235 19.1579837,13.2276871 19.2591609,13.2327021 C19.2862124,13.2339746 19.31298,13.2353219 19.3389666,13.2372681 C19.4432678,13.2452023 19.5470011,13.2501425 19.6473263,13.2521635 C20.1811869,13.2626427 20.6722335,13.1938542 21.1506419,13.0418309 C21.9276828,12.794821 22.5641406,12.3919703 23.042407,11.8446562 C23.0839429,11.7970507 23.1265438,11.7496697 23.1690737,11.7024384 C23.2803331,11.5787837 23.3951426,11.4511619 23.4951128,11.3158305 C23.9308492,10.7262253 24.148824,10.1902138 24.1616042,9.67733145 C24.1761596,9.08959758 23.9239621,8.52416947 23.3905275,7.94841184 C22.7404374,7.24675402 21.7979629,6.72967996 20.4242961,6.3210657" id="Fill-34"></path>
                    </g>
                </g>
            </g>
        </g>
    </g>
</svg>